# xmcd
#
# Track frame offsets:
#        187
#        21457
#        39827
#        63312
#        83522
#        96162
#        113197
#        129487
#        143442
#        167417
#        194177
#        212055
#        230592
#
# Disc length: 3315 seconds
#
# Revision: 4
# Processed by: cddbd v1.5.1PL0 Copyright (c) Steve Scherf et al.
# Submitted via: ExactAudioCopy v0.95a5
#
DISCID=ac0cf10d
DTITLE=The Charlatans - Tellin' Stories
DYEAR=1900
DGENRE=
TTITLE0=With No Shoes
TTITLE1=North Country Boy
TTITLE2=Tellin' Stories
TTITLE3=One To Another
TTITLE4=You're A Big Girl Now
TTITLE5=How Can You Leave Us
TTITLE6=Area 51
TTITLE7=How High
TTITLE8=Only Teethin'
TTITLE9=Get On It
TTITLE10=Rob's Theme
TTITLE11=Two Of Us
TTITLE12=Reputation
EXTD=
EXTT0=
EXTT1=
EXTT2=
EXTT3=
EXTT4=
EXTT5=
EXTT6=
EXTT7=
EXTT8=
EXTT9=
EXTT10=
EXTT11=
EXTT12=
PLAYORDER=
